ffmpeg version 3.4.8-0ubuntu0.2 Copyright (c) 2000-2020 the FFmpeg developers
  built with gcc 7 (Ubuntu 7.5.0-3ubuntu1~18.04)
  configuration: --prefix=/usr --extra-version=0ubuntu0.2 --toolchain=hardened --libdir=/usr/lib/x86_64-linux-gnu --incdir=/usr/include/x86_64-linux-gnu --enable-gpl --disable-stripping --enable-avresample --enable-avisynth --enable-gnutls --enable-ladspa --enable-libass --enable-libbluray --enable-libbs2b --enable-libcaca --enable-libcdio --enable-libflite --enable-libfontconfig --enable-libfreetype --enable-libfribidi --enable-libgme --enable-libgsm --enable-libmp3lame --enable-libmysofa --enable-libopenjpeg --enable-libopenmpt --enable-libopus --enable-libpulse --enable-librubberband --enable-librsvg --enable-libshine --enable-libsnappy --enable-libsoxr --enable-libspeex --enable-libssh --enable-libtheora --enable-libtwolame --enable-libvorbis --enable-libvpx --enable-libwavpack --enable-libwebp --enable-libx265 --enable-libxml2 --enable-libxvid --enable-libzmq --enable-libzvbi --enable-omx --enable-openal --enable-opengl --enable-sdl2 --enable-libdc1394 --enable-libdrm --enable-libiec61883 --enable-chromaprint --enable-frei0r --enable-libopencv --enable-libx264 --enable-shared
  libavutil      55. 78.100 / 55. 78.100
  libavcodec     57.107.100 / 57.107.100
  libavformat    57. 83.100 / 57. 83.100
  libavdevice    57. 10.100 / 57. 10.100
  libavfilter     6.107.100 /  6.107.100
  libavresample   3.  7.  0 /  3.  7.  0
  libswscale      4.  8.100 /  4.  8.100
  libswresample   2.  9.100 /  2.  9.100
  libpostproc    54.  7.100 / 54.  7.100
[rawvideo @ 0x55ad6957ca20] Estimating duration from bitrate, this may be inaccurate
Input #0, rawvideo, from '../../SVC-Encoder-20220109T061506Z-001/SVC-Encoder/Dataset/RollerCoaster/ERP_8x8/tile_yuv/Tile_52_480x240.yuv':
  Duration: 00:00:10.00, start: 0.000000, bitrate: 41472 kb/s
    Stream #0:0: Video: rawvideo (I420 / 0x30323449), yuv420p, 480x240, 41472 kb/s, 30 tbr, 30 tbn, 30 tbc
Stream mapping:
  Stream #0:0 -> #0:0 (rawvideo (native) -> h264 (libx264))
Press [q] to stop, [?] for help
[libx264 @ 0x55ad69589c60] using cpu capabilities: MMX2 SSE2Fast LZCNT SSSE3 SSE4.2 AVX
[libx264 @ 0x55ad69589c60] profile High, level 2.1
Output #0, rawvideo, to 'RollerCoaster_Tile_52_480x240_x264_QP_28.h264':
  Metadata:
    encoder         : Lavf57.83.100
    Stream #0:0: Video: h264 (libx264), yuv420p, 480x240, q=-1--1, 30 fps, 30 tbn, 30 tbc
    Metadata:
      encoder         : Lavc57.107.100 libx264
    Side data:
      cpb: bitrate max/min/avg: 0/0/0 buffer size: 0 vbv_delay: -1
frame=  223 fps=0.0 q=34.0 PSNR=Y:nan U:nan V:nan *:nan size=      28kB time=00:00:06.00 bitrate=  38.0kbits/s speed=  12x    frame=  300 fps=0.0 q=34.0 LPSNR=Y:inf U:inf V:inf *:inf size=      45kB time=00:00:09.93 bitrate=  36.9kbits/s speed=15.4x    
video:45kB audio:0kB subtitle:0kB other streams:0kB global headers:0kB muxing overhead: 0.000000%
[libx264 @ 0x55ad69589c60] frame I:2     Avg QP:26.27  size:  3064  PSNR Mean Y:48.79 U:48.62 V:47.86 Avg:48.59 Global:48.59
[libx264 @ 0x55ad69589c60] frame P:76    Avg QP:27.00  size:   296  PSNR Mean Y:46.99 U:48.04 V:47.72 Avg:47.25 Global:47.23
[libx264 @ 0x55ad69589c60] frame B:222   Avg QP:33.43  size:    77  PSNR Mean Y:46.59 U:47.88 V:47.61 Avg:46.92 Global:46.90
[libx264 @ 0x55ad69589c60] consecutive B-frames:  0.7%  1.3%  2.0% 96.0%
[libx264 @ 0x55ad69589c60] mb I  I16..4: 69.3% 18.0% 12.7%
[libx264 @ 0x55ad69589c60] mb P  I16..4:  2.0%  1.7%  0.0%  P16..4: 17.3%  3.5%  0.5%  0.0%  0.0%    skip:74.9%
[libx264 @ 0x55ad69589c60] mb B  I16..4:  0.0%  0.0%  0.0%  B16..8: 10.1%  0.4%  0.0%  direct: 0.0%  skip:89.4%  L0:43.2% L1:56.3% BI: 0.5%
[libx264 @ 0x55ad69589c60] 8x8 transform intra:34.8% inter:84.0%
[libx264 @ 0x55ad69589c60] coded y,uvDC,uvAC intra: 8.6% 26.1% 7.6% inter: 0.7% 1.4% 0.0%
[libx264 @ 0x55ad69589c60] i16 v,h,dc,p: 56% 31% 10%  3%
[libx264 @ 0x55ad69589c60] i8 v,h,dc,ddl,ddr,vr,hd,vl,hu:  4% 10% 83%  0%  0%  0%  2%  0%  1%
[libx264 @ 0x55ad69589c60] i4 v,h,dc,ddl,ddr,vr,hd,vl,hu:  5% 37% 19%  2%  6%  1% 25%  0%  5%
[libx264 @ 0x55ad69589c60] i8c dc,h,v,p: 72% 20%  7%  1%
[libx264 @ 0x55ad69589c60] Weighted P-Frames: Y:0.0% UV:0.0%
[libx264 @ 0x55ad69589c60] ref P L0: 60.0% 11.6% 20.6%  7.7%
[libx264 @ 0x55ad69589c60] ref B L0: 66.1% 26.1%  7.7%
[libx264 @ 0x55ad69589c60] ref B L1: 80.5% 19.5%
[libx264 @ 0x55ad69589c60] PSNR Mean Y:46.702 U:47.922 V:47.636 Avg:47.018 Global:46.993 kb/s:36.65
